<svg width="16" height="16" viewBox="0 0 16 16" fill="none" xmlns="http://www.w3.org/2000/svg">
<path d="M11 8C11 8.55228 11.4477 9 12 9C12.5523 9 13 8.55228 13 8C13 7.44772 12.5523 7 12 7C11.4477 7 11 7.44772 11 8Z" fill="black"/>
<path d="M7 8C7 8.55228 7.44771 9 8 9C8.55228 9 9 8.55228 9 8C9 7.44772 8.55228 7 8 7C7.44771 7 7 7.44772 7 8Z" fill="black"/>
<path d="M4 9C3.44771 9 3 8.55228 3 8C3 7.44772 3.44771 7 4 7C4.55229 7 5 7.44772 5 8C5 8.55228 4.55229 9 4 9Z" fill="black"/>
<path d="M13.8353 15.8029L13.8151 15.7989C11.9857 15.4363 10.8666 14.9571 10.3472 14.6939C9.60492 14.8929 8.81676 15 8 15C3.58172 15 0 11.866 0 8C0 4.13401 3.58172 1 8 1C12.4183 1 16 4.13401 16 8C16 9.76087 15.2569 11.3699 14.0302 12.6001C14.104 13.3711 14.3058 14.1984 14.5535 14.9181L14.5574 14.9294C14.5876 15.0167 14.6184 15.1023 14.6497 15.1861C14.699 15.3179 14.7497 15.4451 14.801 15.5664C14.8796 15.7521 14.7273 15.9603 14.5283 15.9277C14.3874 15.9047 14.25 15.8808 14.1162 15.8563C14.0208 15.8388 13.9272 15.821 13.8353 15.8029ZM13.0348 12.6954C13.0064 12.3988 13.1117 12.1049 13.3221 11.894C14.3827 10.8304 15 9.46809 15 8C15 4.80754 11.9956 2 8 2C4.0044 2 1 4.80754 1 8C1 11.1925 4.0044 14 8 14C8.72924 14 9.43034 13.9044 10.0882 13.728C10.3262 13.6642 10.5794 13.6905 10.7992 13.8019C11.1864 13.9981 12.0383 14.3721 13.4332 14.6945C13.245 14.0519 13.0984 13.3601 13.0348 12.6954Z" fill="black"/>
</svg>
